<svg xmlns="http://www.w3.org/2000/svg" width="40" height="40" viewBox="0 0 40 40">
    <defs>
        <style>
            .cls-1{fill:#fd0;opacity:0}.cls-2{fill:#fff}
        </style>
    </defs>
    <g id="btn_applications_up" transform="translate(-31)">
        <path id="Path_922" d="M20 0A20 20 0 1 1 0 20 20 20 0 0 1 20 0z" class="cls-1" data-name="Path 922" transform="translate(31)"/>
        <path id="Path_946" d="M4 8h4V4H4zm6 12h4v-4h-4zm-6 0h4v-4H4zm0-6h4v-4H4zm6 0h4v-4h-4zm6-10v4h4V4zm-6 4h4V4h-4zm6 6h4v-4h-4zm0 6h4v-4h-4z" class="cls-2" data-name="Path 946" transform="translate(39 8)"/>
    </g>
</svg>
