<svg xmlns="http://www.w3.org/2000/svg" width="40" height="40" viewBox="0 0 40 40">
    <defs>
        <style>
            .cls-1{fill:#fd0;opacity:0}.cls-2{fill:#fff}
        </style>
    </defs>
    <g id="btn_notifications_up" transform="translate(-78)">
        <path id="Path_949" d="M20 0A20 20 0 1 1 0 20 20 20 0 0 1 20 0z" class="cls-1" data-name="Path 949" transform="translate(78)"/>
        <path id="Path_948" d="M18 16v-5c0-3.07-1.64-5.64-4.5-6.32V4a1.5 1.5 0 0 0-3 0v.68C7.63 5.36 6 7.92 6 11v5l-2 2v1h16v-1zm-5 0h-2v-2h2zm0-4h-2V8h2zm-1 10a2.006 2.006 0 0 0 2-2h-4a2 2 0 0 0 2 2z" class="cls-2" data-name="Path 948" transform="translate(86 7.5)"/>
    </g>
</svg>
